<svg xmlns="http://www.w3.org/2000/svg" viewBox="0 0 508.52 508.52"><g fill="#010002"><path d="M413.172 0H95.347C42.684 0 0 42.684 0 95.347v317.825c0 52.664 42.684 95.347 95.347 95.347h317.825c52.664 0 95.347-42.684 95.347-95.347V95.347C508.52 42.684 465.836 0 413.172 0zm-89.976 404.591c-16.209 0-31.306-4.64-44.178-12.586-8.263 1.494-16.749 2.352-25.49 2.352-77.39 0-140.097-62.389-140.097-139.366 0-7.469.604-14.811 1.748-21.962-8.549-13.094-13.476-28.731-13.476-45.513 0-46.18 37.408-83.588 83.588-83.62 16.845 0 32.482 4.99 45.64 13.571a138.57 138.57 0 0 1 22.566-1.843c77.359 0 140.097 62.421 140.097 139.366 0 6.42-.477 12.713-1.303 18.911 9.185 13.444 14.525 29.653 14.525 47.07 0 46.212-37.408 83.62-83.62 83.62z"/><path d="M235.953 228.166c-40.491-9.853-18.338-44.495 14.461-43.987 31.846.509 48.055 34.134 62.453 32.386 14.461-1.748 26.761-23.392 4.036-42.779-19.61-16.781-44.495-26.03-82.698-22.566-29.939 2.701-58.384 21.993-61.88 59.56-3.464 37.599 41.095 56.7 76.373 61.944 24.727 3.623 58.416 15.605 38.139 38.743-18.561 21.262-53.776 8.105-63.025 2.32-9.249-5.848-19.673-26.634-37.027-25.521-17.385 1.176-25.934 23.996-4.608 44.019 19.101 17.894 39.919 27.778 84.446 25.426 44.559-2.32 84.478-41.635 68.841-78.693-15.637-36.994-59.02-41.031-99.511-50.852z"/></g></svg>