<svg xmlns="http://www.w3.org/2000/svg" width="512.003" height="512.003" viewBox="0 0 512.003 512.003"><path d="M352.003 141.491c0 26.51 21.489 48 48 48 26.51 0 48-21.49 48-48s-21.49-48-48-48c-26.511 0-48 21.49-48 48zm127.195-79.196c-43.738-43.738-114.652-43.738-158.394 0-17.789 17.789-28.343 40.073-31.66 63.196L186.797 280.605a100.88 100.88 0 0 0-39.983 10.508l-78.946-61.712c-18.275-14.287-44.671-11.051-58.956 7.224-14.286 18.275-11.051 44.671 7.224 58.957l77.967 60.946c-8.48 33.391.336 70.269 26.465 96.396 39.453 39.452 103.416 39.452 142.869 0 24.232-24.231 33.574-57.714 28.039-89.083L416.003 252.35l-.002-.001c23.124-3.319 45.408-13.872 63.197-31.661 43.74-43.739 43.74-114.654 0-158.393zM192.002 448.84c-37.195 0-67.349-30.15-67.349-67.349 0-.355.021-.707.027-1.062l33.456 26.152a41.817 41.817 0 0 0 25.837 8.912c12.481 0 24.836-5.54 33.119-16.136 14.286-18.275 11.051-44.672-7.224-58.956l-31.75-24.818a67.632 67.632 0 0 1 13.884-1.439c37.196 0 67.351 30.152 67.351 67.35 0 37.195-30.155 67.346-67.351 67.346zm208.001-227.349c-44.184 0-80-35.817-80-80s35.816-80 80-80c44.183 0 80 35.817 80 80s-35.817 80-80 80z"/></svg>