<?xml version="1.0" encoding="utf-8"?>
<!-- Svg Vector Icons : http://www.onlinewebfonts.com/icon -->
<!DOCTYPE svg PUBLIC "-//W3C//DTD SVG 1.1//EN" "http://www.w3.org/Graphics/SVG/1.1/DTD/svg11.dtd">
<svg version="1.1" xmlns="http://www.w3.org/2000/svg" xmlns:xlink="http://www.w3.org/1999/xlink" x="0px" y="0px" viewBox="0 0 1000 1000" enable-background="new 0 0 1000 1000" xml:space="preserve">
<metadata> Svg Vector Icons : http://www.onlinewebfonts.com/icon </metadata>
<g><g transform="translate(0.000000,511.000000) scale(0.100000,-0.100000)"><path d="M1793.9,4378.2c-231.6-59.3-424.9-271.8-459.4-505.3l-13.4-90H710.6H100v-306.3v-306.3h2143.7h2143.7v306.3v306.3h-610.6h-610.6l-11.5,82.3c-30.6,201-166.5,382.8-354.1,470.9c-105.3,47.9-116.8,49.8-528.3,53.6C2040.9,4391.6,1826.5,4385.8,1793.9,4378.2z"/><path d="M103.8-575.4l5.7-3135.2l49.8-107.2c63.2-135.9,166.5-239.3,302.4-302.4l107.2-49.8h1674.8h1674.8l107.2,49.8c135.9,63.2,239.3,166.5,302.4,302.4l49.8,107.2l5.7,3135.2l3.8,3133.3H2243.7H100L103.8-575.4z M1937.5-810.8v-2756.3H1325H712.5v2756.3v2756.3H1325h612.5V-810.8z"/><path d="M5000-504.6v-3062.5h1531.3h1531.2v1531.3v1531.2l918.8,612.5L9900,720.4v918.8v918.8H7450H5000V-504.6z M6225,1639.2v-306.3h-306.3h-306.3v306.3v306.3h306.3H6225V1639.2z M7450,1639.2v-306.3h-306.3h-306.3v306.3v306.3h306.3H7450V1639.2z M8675,1639.2v-306.3h-306.3h-306.3v306.3v306.3h306.3H8675V1639.2z M6225-2648.3v-306.3h-306.3h-306.3v306.3v306.3h306.3H6225V-2648.3z M7450-2648.3v-306.3h-306.3h-306.3v306.3v306.3h306.3H7450V-2648.3z"/></g></g>
</svg>